<svg width="40" height="40" viewBox="0 0 40 40" fill="none" xmlns="http://www.w3.org/2000/svg">
<path d="M29.5586 19.5571C29.5604 19.5571 29.5617 19.5571 29.5634 19.5571C29.6852 19.5571 29.8014 19.506 29.8839 19.4165C29.9677 19.3257 30.0092 19.2039 29.9983 19.0808C29.5599 14.2593 25.7429 10.4406 20.9212 10.0014C20.7989 9.9918 20.6758 10.0315 20.585 10.1158C20.4942 10.1996 20.4436 10.318 20.4449 10.4415C20.5208 16.8492 21.3661 19.4676 29.5586 19.5571ZM29.5586 20.4426C21.3661 20.5321 20.5213 23.1504 20.4453 29.5581C20.444 29.6817 20.4946 29.8 20.5855 29.8839C20.6667 29.9585 20.7728 30 20.8819 30C20.895 30 20.9085 29.9996 20.9216 29.9983C25.7433 29.559 29.5604 25.7408 29.9983 20.9189C30.0092 20.7958 29.9681 20.674 29.8839 20.5831C29.7996 20.4923 29.6822 20.4474 29.5586 20.4426ZM19.0495 10.0036C14.2432 10.4555 10.4383 14.2732 10.0022 19.0816C9.99124 19.2048 10.0323 19.3266 10.1165 19.4174C10.1991 19.5069 10.3156 19.5575 10.437 19.5575C10.4387 19.5575 10.4405 19.5575 10.4422 19.5575C18.6077 19.4637 19.4508 16.8466 19.5276 10.4433C19.5289 10.3197 19.4778 10.2009 19.387 10.1171C19.2953 10.0333 19.1727 9.99224 19.0495 10.0036ZM10.4418 20.4421C10.306 20.4268 10.1995 20.4915 10.1161 20.5823C10.0323 20.6731 9.9908 20.7949 10.0017 20.918C10.4379 25.7264 14.2432 29.5442 19.0495 29.9961C19.0631 29.9974 19.077 29.9978 19.0906 29.9978C19.1997 29.9978 19.3054 29.9568 19.3866 29.8821C19.4774 29.7983 19.5285 29.6795 19.5272 29.556C19.4503 23.153 18.6077 20.536 10.4418 20.4421Z" fill="white" fill-opacity="0.8"/>
</svg>
