<svg width="526" height="88" viewBox="0 0 526 88" fill="none" xmlns="http://www.w3.org/2000/svg">
<path d="M316.256 38.31V32.91H233.413V22.26H284.93V16.85H233.413V5.39999H316.256V0H219.266V38.31H316.256Z" fill="white"/>
<path d="M411.478 0V16.85H339.491V0H325.354V38.31H339.491V22.26H411.478V38.31H425.616V0H411.478Z" fill="white"/>
<path d="M455.21 0L431.688 38.31H445.825L451.898 28.42H505.326L511.399 38.31H525.536L502.014 0H455.21ZM455.21 23.02L466.025 5.39999H491.188L502.004 23.02H455.21Z" fill="white"/>
<path d="M86.5682 8.39999V38.31H100.706V0H92.9815L14.5006 29.92V0H0.363281V38.31H8.0873L86.5682 8.39999Z" fill="white"/>
<path d="M109.74 0V38.31H123.878V2.81L159.936 24.8L195.985 2.81V38.31H210.122V0H190.502L159.936 18.65L129.36 0H109.74Z" fill="white"/>
<path d="M150.791 86.87V87.22H148.42L147.149 84.42H140.656L139.385 87.22H137.014V86.87L142.607 75H145.178L150.791 86.87ZM146.178 82.34L143.907 77.35L141.636 82.34H146.178Z" fill="white"/>
<path d="M168.599 74.99C170 74.99 171.11 75.33 171.931 76.01C172.741 76.69 173.151 77.61 173.151 78.78V78.98C173.151 80.15 172.741 81.07 171.931 81.75C171.12 82.43 170.01 82.77 168.599 82.77H163.286V87.22H160.955V74.99H168.599ZM170.2 80.24C170.59 79.95 170.78 79.53 170.78 78.98V78.78C170.78 78.23 170.59 77.81 170.2 77.52C169.81 77.23 169.259 77.08 168.539 77.08H163.276V80.68H168.539C169.259 80.68 169.81 80.53 170.2 80.24Z" fill="white"/>
<path d="M182.396 77.08V74.99H194.793V77.08H189.76V87.22H187.429V77.08H182.396Z" fill="white"/>
<path d="M231.552 75.35L226.069 80.96L231.332 86.87V87.22H228.611L223.928 82.06H221.507V87.22H219.176V74.99H221.507V79.97H223.908L228.741 74.99H231.552V75.35Z" fill="white"/>
<path d="M253.934 81.97C254.244 82.41 254.404 82.94 254.404 83.54V83.74C254.404 84.44 254.224 85.04 253.854 85.57C253.483 86.09 252.963 86.5 252.293 86.78C251.623 87.07 250.842 87.21 249.942 87.21H242.428V74.98H249.571C250.972 74.98 252.063 75.26 252.843 75.81C253.624 76.36 254.014 77.14 254.014 78.15V78.36C254.014 79.48 253.543 80.34 252.593 80.93C253.173 81.19 253.624 81.53 253.934 81.97ZM244.759 77.08V80.01H249.551C250.262 80.01 250.782 79.9 251.122 79.68C251.462 79.46 251.633 79.11 251.633 78.65V78.44C251.633 77.99 251.452 77.65 251.102 77.42C250.752 77.19 250.232 77.08 249.561 77.08H244.759ZM252.023 83.47C252.023 83.01 251.853 82.67 251.502 82.44C251.152 82.21 250.622 82.1 249.902 82.1H244.759V85.14H249.902C250.572 85.14 251.092 85.01 251.472 84.76C251.843 84.51 252.033 84.15 252.033 83.69V83.47H252.023Z" fill="white"/>
<path d="M277.187 86.87V87.22H274.816L273.545 84.42H267.052L265.781 87.22H263.41V86.87L269.003 75H271.574L277.187 86.87ZM272.575 82.34L270.304 77.35L268.033 82.34H272.575Z" fill="white"/>
<path d="M294.996 74.99C296.396 74.99 297.507 75.33 298.327 76.01C299.138 76.69 299.548 77.61 299.548 78.78V78.98C299.548 80.15 299.138 81.07 298.327 81.75C297.517 82.43 296.406 82.77 294.996 82.77H289.683V87.22H287.352V74.99H294.996ZM296.596 80.24C296.977 79.95 297.177 79.53 297.177 78.98V78.78C297.177 78.23 296.987 77.81 296.596 77.52C296.206 77.23 295.656 77.08 294.935 77.08H289.673V80.68H294.935C295.656 80.68 296.216 80.53 296.596 80.24Z" fill="white"/>
<path d="M308.793 77.08V74.99H321.189V77.08H316.157V87.22H313.826V77.08H308.793Z" fill="white"/>
<path d="M342.301 86.87V87.22H339.929L338.659 84.42H332.165L330.895 87.22H328.523V86.87L334.116 75H336.688L342.301 86.87ZM337.698 82.34L335.427 77.35L333.156 82.34H337.698Z" fill="white"/>
<path d="M350.955 87.22V86.87L356.498 75H359.179L364.722 86.87V87.22H362.351L357.839 77.23L353.326 87.22H350.955Z" fill="white"/>
<path d="M376.038 74.99V79.46H381.051C382.472 79.46 383.582 79.8 384.393 80.47C385.203 81.14 385.603 82.06 385.603 83.23V83.47C385.603 84.65 385.203 85.57 384.393 86.23C383.582 86.89 382.472 87.22 381.051 87.22H373.707V74.99H376.038ZM382.652 84.7C383.042 84.41 383.242 84 383.242 83.47V83.23C383.242 82.7 383.042 82.28 382.642 81.99C382.241 81.7 381.701 81.55 381.001 81.55H376.038V85.13H381.001C381.711 85.13 382.261 84.99 382.652 84.7ZM389.275 74.99V87.22H386.944V74.99H389.275Z" fill="white"/>
</svg>
