<svg width="223" height="37" viewBox="0 0 223 37" fill="none" xmlns="http://www.w3.org/2000/svg">
<path d="M134.135 16.2517V13.9609H98.9585V9.44301H120.834V7.14801H98.9585V2.29076H134.135V0H92.9512V16.2517H134.135Z" fill="white"/>
<path d="M174.568 0V7.14801H144V0H137.997V16.2517H144V9.44301H174.568V16.2517H180.571V0H174.568Z" fill="white"/>
<path d="M193.138 0L183.15 16.2517H189.153L191.732 12.0562H214.419L216.998 16.2517H223.001L213.013 0H193.138ZM193.138 9.76542L197.731 2.29076H208.416L213.008 9.76542H193.138Z" fill="white"/>
<path d="M36.6045 3.5634V16.2517H42.6076V0H39.3278L6.00303 12.6925V0H0V16.2517H3.27979L36.6045 3.5634Z" fill="white"/>
<path d="M46.4434 0V16.2517H52.4464V1.19204L67.7578 10.5205L83.0649 1.19204V16.2517H89.0679V0H80.7367L67.7578 7.9116L54.7745 0H46.4434Z" fill="white"/>
<path d="M63.8755 36.8516V37.0001H62.8686L62.3291 35.8123H59.5718L59.0323 37.0001H58.0254V36.8516L60.4003 31.8162H61.4921L63.8755 36.8516ZM61.917 34.9299L60.9526 32.8131L59.9882 34.9299H61.917Z" fill="white"/>
<path d="M71.4372 31.8118C72.032 31.8118 72.5036 31.9561 72.8519 32.2445C73.1961 32.533 73.3702 32.9233 73.3702 33.4196V33.5044C73.3702 34.0008 73.1961 34.3911 72.8519 34.6795C72.5078 34.968 72.0362 35.1122 71.4372 35.1122H69.1813V37H68.1914V31.8118H71.4372ZM72.117 34.039C72.2826 33.9159 72.3634 33.7378 72.3634 33.5044V33.4196C72.3634 33.1863 72.2826 33.0081 72.117 32.8851C71.9513 32.7621 71.7176 32.6984 71.4117 32.6984H69.177V34.2256H71.4117C71.7176 34.2256 71.9513 34.162 72.117 34.039Z" fill="white"/>
<path d="M77.2959 32.6984V31.8118H82.5597V32.6984H80.4228V37H79.4329V32.6984H77.2959Z" fill="white"/>
<path d="M98.1694 31.9645L95.8412 34.3444L98.0759 36.8515V37H96.9203L94.9321 34.811H93.9039V37H92.9141V31.8118H93.9039V33.9244H94.9236L96.9756 31.8118H98.1694V31.9645Z" fill="white"/>
<path d="M107.673 34.7729C107.805 34.9595 107.872 35.1844 107.872 35.4389V35.5237C107.872 35.8207 107.796 36.0752 107.639 36.3001C107.482 36.5206 107.261 36.6946 106.976 36.8134C106.691 36.9364 106.36 36.9958 105.978 36.9958H102.787V31.8076H105.82C106.415 31.8076 106.878 31.9264 107.21 32.1597C107.541 32.393 107.707 32.7239 107.707 33.1524V33.2415C107.707 33.7166 107.507 34.0814 107.104 34.3317C107.35 34.442 107.541 34.5862 107.673 34.7729ZM103.777 32.6985V33.9414H105.812C106.114 33.9414 106.335 33.8948 106.479 33.8014C106.623 33.7081 106.696 33.5596 106.696 33.3645V33.2754C106.696 33.0845 106.619 32.9403 106.471 32.8427C106.322 32.7451 106.101 32.6985 105.816 32.6985H103.777ZM106.861 35.4092C106.861 35.2141 106.789 35.0698 106.64 34.9723C106.492 34.8747 106.267 34.828 105.961 34.828H103.777V36.1176H105.961C106.245 36.1176 106.466 36.0625 106.628 35.9564C106.785 35.8504 106.866 35.6977 106.866 35.5025V35.4092H106.861Z" fill="white"/>
<path d="M117.545 36.8515V37H116.539L115.999 35.8122H113.242L112.702 37H111.695V36.8515L114.07 31.8161H115.162L117.545 36.8515ZM115.587 34.9298L114.622 32.813L113.658 34.9298H115.587Z" fill="white"/>
<path d="M125.108 31.8118C125.703 31.8118 126.174 31.9561 126.523 32.2445C126.867 32.533 127.041 32.9233 127.041 33.4196V33.5044C127.041 34.0008 126.867 34.3911 126.523 34.6795C126.179 34.968 125.707 35.1122 125.108 35.1122H122.852V37H121.862V31.8118H125.108ZM125.788 34.039C125.949 33.9159 126.034 33.7378 126.034 33.5044V33.4196C126.034 33.1863 125.954 33.0081 125.788 32.8851C125.622 32.7621 125.388 32.6984 125.083 32.6984H122.848V34.2256H125.083C125.388 34.2256 125.626 34.162 125.788 34.039Z" fill="white"/>
<path d="M130.966 32.6984V31.8118H136.23V32.6984H134.093V37H133.103V32.6984H130.966Z" fill="white"/>
<path d="M145.194 36.8515V37H144.187L143.647 35.8122H140.89L140.351 37H139.344V36.8515L141.719 31.8161H142.81L145.194 36.8515ZM143.24 34.9298L142.275 32.813L141.311 34.9298H143.24Z" fill="white"/>
<path d="M148.87 37V36.8515L151.224 31.8161H152.362L154.716 36.8515V37H153.709L151.793 32.7621L149.877 37H148.87Z" fill="white"/>
<path d="M159.52 31.8118V33.7081H161.649C162.252 33.7081 162.723 33.8523 163.068 34.1365C163.412 34.4207 163.582 34.811 163.582 35.3074V35.4092C163.582 35.9097 163.412 36.3 163.068 36.58C162.723 36.86 162.252 37 161.649 37H158.53V31.8118H159.52ZM162.328 35.931C162.494 35.8079 162.579 35.634 162.579 35.4092V35.3074C162.579 35.0825 162.494 34.9044 162.324 34.7813C162.154 34.6583 161.925 34.5947 161.627 34.5947H159.52V36.1134H161.627C161.929 36.1134 162.163 36.054 162.328 35.931ZM165.141 31.8118V37H164.151V31.8118H165.141Z" fill="white"/>
</svg>
