<svg width="85" height="22" viewBox="0 0 85 22" fill="none" xmlns="http://www.w3.org/2000/svg">
<g clip-path="url(#clip0_405_6973)">
<path fill-rule="evenodd" clip-rule="evenodd" d="M78.3693 1.01615H84.5V1.52384L71.2564 11.0008L84.5 20.5116V20.9854H78.3016L69.0887 14.3854V20.9854H64.4145V15.9085L59.5371 19.53C57.7758 20.8162 55.6081 21.5946 53.271 21.5946H52.9323H52.8306H52.5935H52.4919C52.4193 21.5946 52.3564 21.5849 52.2981 21.5759C52.2475 21.5681 52.2004 21.5608 52.1532 21.5608H52.1194C52.0889 21.5608 52.0516 21.5539 52.0105 21.5464C51.9603 21.5372 51.9043 21.5269 51.8484 21.5269H51.7468C51.7129 21.5269 51.6706 21.5185 51.6282 21.51C51.5859 21.5016 51.5435 21.4931 51.5097 21.4931H51.4419C51.3911 21.4762 51.3403 21.4677 51.2895 21.4593C51.2387 21.4508 51.1879 21.4423 51.1371 21.4254H51.1032C51.0524 21.4085 51.0101 21.4 50.9677 21.3916C50.9254 21.3831 50.8831 21.3746 50.8323 21.3577C50.8323 21.3239 50.7984 21.3239 50.7645 21.3239C50.7137 21.3069 50.6714 21.2985 50.629 21.29C50.5867 21.2816 50.5443 21.2731 50.4935 21.2562H50.4597L50.1548 21.1546H50.121L49.8161 21.0531C49.8161 21.0192 49.7823 21.0192 49.7823 21.0192C49.4436 20.9177 49.1387 20.7823 48.8339 20.647C46.8355 19.6993 45.1758 18.1423 44.0919 16.2469L44.0242 16.1116L39.4516 19.5639C37.7242 20.85 35.5226 21.6285 33.1855 21.6285C27.3597 21.6285 22.6177 16.89 22.6177 11.0685C22.6177 5.24692 27.3597 0.508455 33.1855 0.508455C36.4032 0.508455 39.2823 1.93 41.2129 4.19769L37.8597 6.60077C36.6742 5.38231 35.0145 4.60384 33.1855 4.60384C29.629 4.60384 26.7161 7.51461 26.7161 11.0685C26.7161 14.6223 29.629 17.5331 33.1855 17.5331C35.4548 17.5331 37.4532 15.9085 37.4532 15.9085C37.4532 15.9085 42.8048 12.0839 42.8048 12.05V11.9485V11.8469V11.61V11.5762V11.0346C42.8048 5.21307 47.5468 0.474609 53.3726 0.474609C56.5903 0.474609 59.4694 1.89615 61.4 4.16384L58.0468 6.56692C56.8613 5.34846 55.2016 4.57 53.3726 4.57C49.8161 4.57 46.9032 7.48077 46.9032 11.0346C46.9032 14.5885 49.8161 17.4992 53.3726 17.4992C55.6419 17.4654 57.6403 15.8746 57.6403 15.8746L64.4145 11.0008V1.01615H69.0887V7.65L78.3693 1.01615ZM20.5855 1.01615H0.5V5.65307H20.5855V1.01615ZM20.5855 16.3485H0.5V21.0192H20.5855V16.3485Z" fill="white"/>
</g>
<defs>
<clipPath id="clip0_405_6973">
<rect width="84" height="22" fill="white" transform="translate(0.5)"/>
</clipPath>
</defs>
</svg>
