<svg width="802" height="59" viewBox="0 0 802 59" fill="none" xmlns="http://www.w3.org/2000/svg">
<path d="M482.162 58.4181V50.1837H355.715V33.9438H434.347V25.6942H355.715V8.23433H482.162V0H334.121V58.4181H482.162Z" fill="#003F3D"/>
<path d="M627.499 0V25.6942H517.621V0H496.043V58.4181H517.621V33.9438H627.499V58.4181H649.078V0H627.499Z" fill="#003F3D"/>
<path d="M694.254 0L658.351 58.4181H679.929L689.199 43.337H770.748L780.018 58.4181H801.596L765.693 0H694.254ZM694.254 35.1027L710.762 8.23433H749.169L765.678 35.1027H694.254Z" fill="#003F3D"/>
<path d="M131.578 12.809V58.4181H153.157V0H141.367L21.5785 45.6243V0H0V58.4181H11.7895L131.578 12.809Z" fill="#003F3D"/>
<path d="M166.945 0V58.4181H188.524V4.28491L243.562 37.817L298.585 4.28491V58.4181H320.163V0H290.216L243.562 28.439L196.893 0H166.945Z" fill="#003F3D"/>
</svg>
