<svg width="40" height="40" viewBox="0 0 40 40" fill="none" xmlns="http://www.w3.org/2000/svg">
<path d="M29.0904 22.2583C27.1304 20.34 27.3806 20.6319 29.7577 17.3374C31.1755 15.3357 31.7594 14.0847 31.5926 13.5426C31.5091 13.2089 30.3832 13.2923 30.3832 13.2923H26.8802C26.8802 13.2923 26.3381 13.2923 26.1296 13.6677C25.7543 14.3766 25.5874 15.2523 24.8368 16.5451C23.2521 19.3391 22.6266 19.506 22.3764 19.3391C21.7926 18.9221 21.9177 17.7128 21.9177 16.837C21.9177 14.1264 22.293 13.0004 21.167 12.6668C20.9168 12.5834 20.7083 12.5834 20.333 12.5417C19.8743 12.5 19.4155 12.5 18.9985 12.5C17.956 12.5 17.1636 12.5417 16.6215 12.7919C16.2045 13.0004 15.9125 13.4591 16.1211 13.5009C16.3713 13.5426 16.8717 13.6677 17.1636 14.043C17.5389 14.5434 17.4972 15.7111 17.4972 15.7111C17.4972 15.7111 17.7057 18.9221 16.9968 19.2974C16.5381 19.5894 15.8708 19.0055 14.4947 16.4617C13.7857 15.1689 13.7023 14.2932 13.2436 13.7094C12.9517 13.334 12.4096 13.2089 12.4096 13.2089H9.0734C9.0734 13.2089 8.48957 13.1672 8.40617 13.334C8.23936 13.5426 8.40617 13.9596 8.40617 13.9596C8.40617 13.9596 11.0334 20.4234 13.9943 23.6762C16.6215 26.7621 19.7074 26.5953 19.7074 26.5953C19.7074 26.5953 21.5006 26.6787 21.7508 26.22C21.9177 26.0532 21.9594 25.5528 21.9594 25.5528C21.9594 25.5528 21.9177 23.5511 22.7934 23.2591C23.6691 22.9672 24.7534 25.1774 25.9211 26.0115C26.7968 26.6787 27.047 26.5953 27.464 26.5953C28.2981 26.5953 30.5917 26.5953 30.5917 26.5953C30.5917 26.5953 32.2181 26.4285 31.4674 25.0523C31.3423 24.9689 30.967 24.0932 29.0904 22.2583Z" fill="white" fill-opacity="0.8"/>
</svg>
